<svg xmlns="http://www.w3.org/2000/svg" viewBox="0 0 88.133 94.837">
  <defs>
    <style>
      .cls-1 {
        fill: #b9bbbb;
      }
    </style>
  </defs>
  <g id="shopping-cart" transform="translate(0 0)">
    <path id="Path_6" data-name="Path 6" class="cls-1" d="M42.318,62.443H94.574a10.781,10.781,0,0,0,10.759-10.759V29.465a.247.247,0,0,0-.019-.117c0-.039-.019-.1-.019-.136s-.019-.078-.019-.117a1.242,1.242,0,0,1-.039-.136c-.019-.039-.019-.078-.039-.117s-.019-.078-.039-.117a.949.949,0,0,1-.058-.136.426.426,0,0,0-.058-.1l-.058-.117c-.019-.039-.039-.058-.058-.1s-.058-.078-.078-.117a.342.342,0,0,0-.078-.1c-.019-.039-.058-.058-.078-.1s-.058-.058-.078-.1-.058-.058-.078-.078l-.1-.1c-.039-.019-.058-.058-.1-.078s-.078-.058-.117-.078-.058-.039-.1-.058a.408.408,0,0,1-.117-.078l-.117-.058-.117-.058-.117-.058c-.039-.019-.078-.019-.117-.039a.361.361,0,0,0-.136-.039.844.844,0,0,1-.1-.019.429.429,0,0,0-.156-.019c-.019,0-.039-.019-.078-.019L36.841,17.945V8.707a1.2,1.2,0,0,0-.019-.273.147.147,0,0,0-.019-.078c0-.058-.019-.117-.019-.175-.019-.058-.019-.1-.039-.156,0-.039-.019-.058-.019-.1l-.058-.175c0-.019-.019-.058-.019-.078a.583.583,0,0,0-.078-.156c-.019-.019-.019-.058-.039-.078a.408.408,0,0,0-.078-.117c-.019-.039-.039-.058-.058-.1s-.039-.058-.058-.1-.058-.078-.078-.117L36.2,6.952l-.117-.117-.058-.058a.847.847,0,0,0-.136-.117c-.019-.019-.058-.039-.078-.058-.039-.039-.078-.058-.117-.1a1.8,1.8,0,0,0-.156-.1c-.019-.019-.039-.019-.058-.039-.078-.039-.175-.078-.253-.117L20.858.209a2.634,2.634,0,0,0-2.047,4.853l12.747,5.38V68.1a10.771,10.771,0,0,0,9.375,10.662,10.619,10.619,0,1,0,19.725,5.457,10.421,10.421,0,0,0-1.462-5.36H82.86a10.474,10.474,0,0,0-1.462,5.36A10.623,10.623,0,1,0,92.02,73.592h-49.7a5.5,5.5,0,0,1-5.5-5.5V60.962A10.882,10.882,0,0,0,42.318,62.443ZM55.416,84.2a5.36,5.36,0,1,1-5.36-5.36A5.37,5.37,0,0,1,55.416,84.2Zm41.984,0a5.36,5.36,0,1,1-5.36-5.36A5.37,5.37,0,0,1,97.4,84.2ZM94.574,57.181H42.318a5.5,5.5,0,0,1-5.5-5.5V23.247l63.249,8.713V51.665A5.507,5.507,0,0,1,94.574,57.181Z" transform="translate(-17.2 0)"/>
  </g>
</svg>
