<svg xmlns="http://www.w3.org/2000/svg" viewBox="0 0 99.405 99.404">
  <defs>
    <style>
      .cls-1 {
        fill: #b9bbbb;
      }
    </style>
  </defs>
  <g id="shopping-cart_1_" data-name="shopping-cart (1)" transform="translate(0)">
    <g id="shopping-cart">
      <path id="Path_7" data-name="Path 7" class="cls-1" d="M29.821,79.524a9.94,9.94,0,1,0,9.94,9.94A9.97,9.97,0,0,0,29.821,79.524ZM0,0V9.94H9.94L27.833,47.714,20.875,59.643a17.659,17.659,0,0,0-.994,4.97,9.97,9.97,0,0,0,9.94,9.94H89.464v-9.94H31.809a1.069,1.069,0,0,1-.994-.994v-.5l4.473-8.449h36.78a9.064,9.064,0,0,0,8.449-4.97L98.41,17.4a2.736,2.736,0,0,0,.994-2.485,4.7,4.7,0,0,0-4.97-4.97H20.875L16.4,0ZM79.524,79.524a9.94,9.94,0,1,0,9.94,9.94A9.97,9.97,0,0,0,79.524,79.524Z"/>
    </g>
  </g>
</svg>
